<mxfile host="app.diagrams.net" agent="Mozilla/5.0 (Windows NT 10.0; Win64; x64) AppleWebKit/537.36 (KHTML, like Gecko) Chrome/128.0.0.0 Safari/537.36" version="24.7.7">
  <diagram name="Page-1" id="pXwcME8X7EryXPx28JJy">
    <mxGraphModel dx="1467" dy="780" grid="1" gridSize="10" guides="1" tooltips="1" connect="1" arrows="1" fold="1" page="1" pageScale="1" pageWidth="850" pageHeight="1100" math="0" shadow="0">
      <root>
        <mxCell id="0" />
        <mxCell id="1" parent="0" />
        <mxCell id="-NAcJlbDHgNry9eSRGQI-1" style="rounded=0;orthogonalLoop=1;jettySize=auto;html=1;entryX=0.5;entryY=1;entryDx=0;entryDy=0;endArrow=none;endFill=0;" parent="1" source="-NAcJlbDHgNry9eSRGQI-6" target="-NAcJlbDHgNry9eSRGQI-31" edge="1">
          <mxGeometry relative="1" as="geometry" />
        </mxCell>
        <mxCell id="-NAcJlbDHgNry9eSRGQI-2" style="rounded=0;orthogonalLoop=1;jettySize=auto;html=1;entryX=0.5;entryY=1;entryDx=0;entryDy=0;endArrow=none;endFill=0;" parent="1" source="-NAcJlbDHgNry9eSRGQI-6" target="-NAcJlbDHgNry9eSRGQI-34" edge="1">
          <mxGeometry relative="1" as="geometry" />
        </mxCell>
        <mxCell id="-NAcJlbDHgNry9eSRGQI-3" style="rounded=0;orthogonalLoop=1;jettySize=auto;html=1;entryX=0;entryY=0.5;entryDx=0;entryDy=0;endArrow=none;endFill=0;" parent="1" source="-NAcJlbDHgNry9eSRGQI-6" target="-NAcJlbDHgNry9eSRGQI-32" edge="1">
          <mxGeometry relative="1" as="geometry" />
        </mxCell>
        <mxCell id="-NAcJlbDHgNry9eSRGQI-4" style="rounded=0;orthogonalLoop=1;jettySize=auto;html=1;entryX=0;entryY=0.5;entryDx=0;entryDy=0;endArrow=none;endFill=0;" parent="1" source="-NAcJlbDHgNry9eSRGQI-6" target="-NAcJlbDHgNry9eSRGQI-33" edge="1">
          <mxGeometry relative="1" as="geometry" />
        </mxCell>
        <mxCell id="-NAcJlbDHgNry9eSRGQI-5" style="rounded=0;orthogonalLoop=1;jettySize=auto;html=1;entryX=0;entryY=0.5;entryDx=0;entryDy=0;endArrow=none;endFill=0;" parent="1" source="-NAcJlbDHgNry9eSRGQI-6" target="-NAcJlbDHgNry9eSRGQI-35" edge="1">
          <mxGeometry relative="1" as="geometry" />
        </mxCell>
        <mxCell id="-NAcJlbDHgNry9eSRGQI-6" value="Livros" style="whiteSpace=wrap;html=1;align=center;" parent="1" vertex="1">
          <mxGeometry x="515" y="240" width="100" height="40" as="geometry" />
        </mxCell>
        <mxCell id="-NAcJlbDHgNry9eSRGQI-7" style="rounded=0;orthogonalLoop=1;jettySize=auto;html=1;entryX=0;entryY=0.5;entryDx=0;entryDy=0;endArrow=none;endFill=0;" parent="1" source="-NAcJlbDHgNry9eSRGQI-14" target="-NAcJlbDHgNry9eSRGQI-42" edge="1">
          <mxGeometry relative="1" as="geometry" />
        </mxCell>
        <mxCell id="-NAcJlbDHgNry9eSRGQI-8" style="rounded=0;orthogonalLoop=1;jettySize=auto;html=1;entryX=1;entryY=0.5;entryDx=0;entryDy=0;endArrow=none;endFill=0;exitX=0.797;exitY=1;exitDx=0;exitDy=0;exitPerimeter=0;" parent="1" source="-NAcJlbDHgNry9eSRGQI-14" target="f2Oplvw4wdmzlCfMh2HP-1" edge="1">
          <mxGeometry relative="1" as="geometry" />
        </mxCell>
        <mxCell id="-NAcJlbDHgNry9eSRGQI-10" style="rounded=0;orthogonalLoop=1;jettySize=auto;html=1;entryX=0.5;entryY=1;entryDx=0;entryDy=0;endArrow=none;endFill=0;exitX=0.812;exitY=-0.042;exitDx=0;exitDy=0;exitPerimeter=0;" parent="1" source="-NAcJlbDHgNry9eSRGQI-14" target="-NAcJlbDHgNry9eSRGQI-47" edge="1">
          <mxGeometry relative="1" as="geometry" />
        </mxCell>
        <mxCell id="-NAcJlbDHgNry9eSRGQI-11" style="rounded=0;orthogonalLoop=1;jettySize=auto;html=1;entryX=0.5;entryY=1;entryDx=0;entryDy=0;endArrow=none;endFill=0;exitX=0.5;exitY=0;exitDx=0;exitDy=0;" parent="1" source="-NAcJlbDHgNry9eSRGQI-14" target="-NAcJlbDHgNry9eSRGQI-49" edge="1">
          <mxGeometry relative="1" as="geometry" />
        </mxCell>
        <mxCell id="-NAcJlbDHgNry9eSRGQI-12" style="rounded=0;orthogonalLoop=1;jettySize=auto;html=1;endArrow=none;endFill=0;exitX=0.25;exitY=0;exitDx=0;exitDy=0;" parent="1" source="-NAcJlbDHgNry9eSRGQI-14" target="-NAcJlbDHgNry9eSRGQI-48" edge="1">
          <mxGeometry relative="1" as="geometry" />
        </mxCell>
        <mxCell id="-NAcJlbDHgNry9eSRGQI-14" value="Pessoa" style="whiteSpace=wrap;html=1;align=center;" parent="1" vertex="1">
          <mxGeometry x="200" y="430" width="100" height="40" as="geometry" />
        </mxCell>
        <mxCell id="-NAcJlbDHgNry9eSRGQI-15" style="rounded=0;orthogonalLoop=1;jettySize=auto;html=1;entryX=0;entryY=0.5;entryDx=0;entryDy=0;endArrow=none;endFill=0;exitX=1;exitY=0.25;exitDx=0;exitDy=0;exitPerimeter=0;" parent="1" source="-NAcJlbDHgNry9eSRGQI-17" target="-NAcJlbDHgNry9eSRGQI-36" edge="1">
          <mxGeometry relative="1" as="geometry" />
        </mxCell>
        <mxCell id="-NAcJlbDHgNry9eSRGQI-16" style="rounded=0;orthogonalLoop=1;jettySize=auto;html=1;entryX=1;entryY=0.5;entryDx=0;entryDy=0;endArrow=none;endFill=0;exitX=1;exitY=0.5;exitDx=0;exitDy=0;" parent="1" source="-NAcJlbDHgNry9eSRGQI-17" target="-NAcJlbDHgNry9eSRGQI-37" edge="1">
          <mxGeometry relative="1" as="geometry" />
        </mxCell>
        <mxCell id="-NAcJlbDHgNry9eSRGQI-17" value="Aluno" style="whiteSpace=wrap;html=1;align=center;" parent="1" vertex="1">
          <mxGeometry x="340" y="600" width="100" height="40" as="geometry" />
        </mxCell>
        <mxCell id="-NAcJlbDHgNry9eSRGQI-18" style="rounded=0;orthogonalLoop=1;jettySize=auto;html=1;entryX=0;entryY=0.5;entryDx=0;entryDy=0;endArrow=none;endFill=0;" parent="1" source="-NAcJlbDHgNry9eSRGQI-20" target="-NAcJlbDHgNry9eSRGQI-39" edge="1">
          <mxGeometry relative="1" as="geometry" />
        </mxCell>
        <mxCell id="-NAcJlbDHgNry9eSRGQI-19" style="rounded=0;orthogonalLoop=1;jettySize=auto;html=1;endArrow=none;endFill=0;entryX=0;entryY=0.5;entryDx=0;entryDy=0;" parent="1" source="-NAcJlbDHgNry9eSRGQI-20" target="-NAcJlbDHgNry9eSRGQI-40" edge="1">
          <mxGeometry relative="1" as="geometry">
            <mxPoint x="240" y="640" as="targetPoint" />
          </mxGeometry>
        </mxCell>
        <mxCell id="-NAcJlbDHgNry9eSRGQI-20" value="Professor" style="whiteSpace=wrap;html=1;align=center;" parent="1" vertex="1">
          <mxGeometry x="110" y="600" width="100" height="40" as="geometry" />
        </mxCell>
        <mxCell id="-NAcJlbDHgNry9eSRGQI-21" style="rounded=0;orthogonalLoop=1;jettySize=auto;html=1;entryX=0.5;entryY=0;entryDx=0;entryDy=0;endArrow=none;endFill=0;" parent="1" source="-NAcJlbDHgNry9eSRGQI-27" target="-NAcJlbDHgNry9eSRGQI-46" edge="1">
          <mxGeometry relative="1" as="geometry" />
        </mxCell>
        <mxCell id="-NAcJlbDHgNry9eSRGQI-22" style="rounded=0;orthogonalLoop=1;jettySize=auto;html=1;entryX=0;entryY=0.5;entryDx=0;entryDy=0;endArrow=none;endFill=0;" parent="1" source="-NAcJlbDHgNry9eSRGQI-27" target="-NAcJlbDHgNry9eSRGQI-45" edge="1">
          <mxGeometry relative="1" as="geometry" />
        </mxCell>
        <mxCell id="-NAcJlbDHgNry9eSRGQI-23" style="rounded=0;orthogonalLoop=1;jettySize=auto;html=1;endArrow=none;endFill=0;entryX=0;entryY=0.5;entryDx=0;entryDy=0;" parent="1" source="-NAcJlbDHgNry9eSRGQI-27" target="-NAcJlbDHgNry9eSRGQI-44" edge="1">
          <mxGeometry relative="1" as="geometry">
            <mxPoint x="653" y="469" as="targetPoint" />
          </mxGeometry>
        </mxCell>
        <mxCell id="-NAcJlbDHgNry9eSRGQI-24" style="rounded=0;orthogonalLoop=1;jettySize=auto;html=1;entryX=0;entryY=0.5;entryDx=0;entryDy=0;endArrow=none;endFill=0;" parent="1" source="-NAcJlbDHgNry9eSRGQI-27" target="-NAcJlbDHgNry9eSRGQI-43" edge="1">
          <mxGeometry relative="1" as="geometry" />
        </mxCell>
        <mxCell id="-NAcJlbDHgNry9eSRGQI-25" style="rounded=0;orthogonalLoop=1;jettySize=auto;html=1;entryX=0.5;entryY=1;entryDx=0;entryDy=0;endArrow=none;endFill=0;" parent="1" source="-NAcJlbDHgNry9eSRGQI-27" target="-NAcJlbDHgNry9eSRGQI-6" edge="1">
          <mxGeometry relative="1" as="geometry" />
        </mxCell>
        <mxCell id="-NAcJlbDHgNry9eSRGQI-27" value="Emprestimo" style="whiteSpace=wrap;html=1;align=center;" parent="1" vertex="1">
          <mxGeometry x="515" y="430" width="100" height="40" as="geometry" />
        </mxCell>
        <mxCell id="-NAcJlbDHgNry9eSRGQI-28" value="Biblioteca" style="whiteSpace=wrap;html=1;align=center;" parent="1" vertex="1">
          <mxGeometry x="190" y="240" width="100" height="40" as="geometry" />
        </mxCell>
        <mxCell id="-NAcJlbDHgNry9eSRGQI-29" style="rounded=0;orthogonalLoop=1;jettySize=auto;html=1;entryX=0;entryY=0.5;entryDx=0;entryDy=0;endArrow=none;endFill=0;" parent="1" source="-NAcJlbDHgNry9eSRGQI-30" target="-NAcJlbDHgNry9eSRGQI-6" edge="1">
          <mxGeometry relative="1" as="geometry" />
        </mxCell>
        <mxCell id="-NAcJlbDHgNry9eSRGQI-30" value="Gerencia" style="shape=rhombus;perimeter=rhombusPerimeter;whiteSpace=wrap;html=1;align=center;" parent="1" vertex="1">
          <mxGeometry x="340" y="230" width="120" height="60" as="geometry" />
        </mxCell>
        <mxCell id="-NAcJlbDHgNry9eSRGQI-31" value="Titulo" style="ellipse;whiteSpace=wrap;html=1;align=left;spacingLeft=25;" parent="1" vertex="1">
          <mxGeometry x="555" y="190" width="20" height="10" as="geometry" />
        </mxCell>
        <mxCell id="-NAcJlbDHgNry9eSRGQI-32" value="Autor" style="ellipse;whiteSpace=wrap;html=1;align=left;spacingLeft=25;" parent="1" vertex="1">
          <mxGeometry x="640" y="220" width="20" height="10" as="geometry" />
        </mxCell>
        <mxCell id="-NAcJlbDHgNry9eSRGQI-33" value="Editora" style="ellipse;whiteSpace=wrap;html=1;align=left;spacingLeft=25;" parent="1" vertex="1">
          <mxGeometry x="640" y="250" width="20" height="10" as="geometry" />
        </mxCell>
        <mxCell id="-NAcJlbDHgNry9eSRGQI-34" value="ISBN" style="ellipse;whiteSpace=wrap;html=1;align=left;spacingLeft=25;" parent="1" vertex="1">
          <mxGeometry x="615" y="190" width="20" height="10" as="geometry" />
        </mxCell>
        <mxCell id="-NAcJlbDHgNry9eSRGQI-35" value="Disponibilidade" style="ellipse;whiteSpace=wrap;html=1;align=left;spacingLeft=25;" parent="1" vertex="1">
          <mxGeometry x="640" y="280" width="20" height="10" as="geometry" />
        </mxCell>
        <mxCell id="-NAcJlbDHgNry9eSRGQI-36" value="Matricula" style="ellipse;whiteSpace=wrap;html=1;align=left;spacingLeft=25;fontStyle=4" parent="1" vertex="1">
          <mxGeometry x="470" y="600" width="20" height="10" as="geometry" />
        </mxCell>
        <mxCell id="-NAcJlbDHgNry9eSRGQI-37" value="Curso" style="ellipse;whiteSpace=wrap;html=1;align=left;spacingLeft=25;direction=west;" parent="1" vertex="1">
          <mxGeometry x="470" y="630" width="20" height="10" as="geometry" />
        </mxCell>
        <mxCell id="-NAcJlbDHgNry9eSRGQI-38" style="rounded=0;orthogonalLoop=1;jettySize=auto;html=1;endArrow=none;endFill=0;entryX=0;entryY=0.5;entryDx=0;entryDy=0;" parent="1" source="-NAcJlbDHgNry9eSRGQI-28" target="-NAcJlbDHgNry9eSRGQI-30" edge="1">
          <mxGeometry relative="1" as="geometry">
            <mxPoint x="330" y="260" as="targetPoint" />
          </mxGeometry>
        </mxCell>
        <mxCell id="-NAcJlbDHgNry9eSRGQI-39" value="&lt;u&gt;Matricula&lt;/u&gt;" style="ellipse;whiteSpace=wrap;html=1;align=left;spacingLeft=25;" parent="1" vertex="1">
          <mxGeometry x="230" y="600" width="20" height="10" as="geometry" />
        </mxCell>
        <mxCell id="-NAcJlbDHgNry9eSRGQI-40" value="Departamento" style="ellipse;whiteSpace=wrap;html=1;align=left;spacingLeft=25;" parent="1" vertex="1">
          <mxGeometry x="230" y="630" width="20" height="10" as="geometry" />
        </mxCell>
        <mxCell id="-NAcJlbDHgNry9eSRGQI-41" style="rounded=0;orthogonalLoop=1;jettySize=auto;html=1;endArrow=none;endFill=0;" parent="1" source="-NAcJlbDHgNry9eSRGQI-42" target="-NAcJlbDHgNry9eSRGQI-27" edge="1">
          <mxGeometry relative="1" as="geometry" />
        </mxCell>
        <mxCell id="-NAcJlbDHgNry9eSRGQI-42" value="Solicita" style="shape=rhombus;perimeter=rhombusPerimeter;whiteSpace=wrap;html=1;align=center;" parent="1" vertex="1">
          <mxGeometry x="340" y="420" width="120" height="60" as="geometry" />
        </mxCell>
        <mxCell id="-NAcJlbDHgNry9eSRGQI-43" value="Data emprestimo" style="ellipse;whiteSpace=wrap;html=1;align=left;spacingLeft=25;" parent="1" vertex="1">
          <mxGeometry x="650" y="420" width="20" height="10" as="geometry" />
        </mxCell>
        <mxCell id="-NAcJlbDHgNry9eSRGQI-44" value="Data devolução" style="ellipse;whiteSpace=wrap;html=1;align=left;spacingLeft=25;" parent="1" vertex="1">
          <mxGeometry x="650" y="460" width="20" height="10" as="geometry" />
        </mxCell>
        <mxCell id="-NAcJlbDHgNry9eSRGQI-45" value="Atraso" style="ellipse;whiteSpace=wrap;html=1;align=left;spacingLeft=25;" parent="1" vertex="1">
          <mxGeometry x="650" y="500" width="20" height="10" as="geometry" />
        </mxCell>
        <mxCell id="-NAcJlbDHgNry9eSRGQI-46" value="Multa" style="ellipse;whiteSpace=wrap;html=1;align=left;spacingLeft=25;" parent="1" vertex="1">
          <mxGeometry x="555" y="500" width="20" height="10" as="geometry" />
        </mxCell>
        <mxCell id="-NAcJlbDHgNry9eSRGQI-47" value="Nome" style="ellipse;whiteSpace=wrap;html=1;align=center;spacingLeft=0;spacingBottom=30;" parent="1" vertex="1">
          <mxGeometry x="300" y="390" width="20" height="10" as="geometry" />
        </mxCell>
        <mxCell id="-NAcJlbDHgNry9eSRGQI-48" value="RG" style="ellipse;whiteSpace=wrap;html=1;align=center;spacingLeft=0;spacingRight=0;spacingBottom=29;fontStyle=4" parent="1" vertex="1">
          <mxGeometry x="180" y="390" width="20" height="10" as="geometry" />
        </mxCell>
        <mxCell id="-NAcJlbDHgNry9eSRGQI-49" value="Telefone" style="ellipse;whiteSpace=wrap;html=1;align=center;spacingLeft=0;spacingTop=0;spacingBottom=30;spacingRight=0;" parent="1" vertex="1">
          <mxGeometry x="240" y="390" width="20" height="10" as="geometry" />
        </mxCell>
        <mxCell id="f2Oplvw4wdmzlCfMh2HP-6" style="rounded=0;orthogonalLoop=1;jettySize=auto;html=1;entryX=0.5;entryY=0;entryDx=0;entryDy=0;exitX=-0.005;exitY=0;exitDx=0;exitDy=0;exitPerimeter=0;endArrow=none;endFill=0;" edge="1" parent="1" source="f2Oplvw4wdmzlCfMh2HP-1" target="-NAcJlbDHgNry9eSRGQI-20">
          <mxGeometry relative="1" as="geometry" />
        </mxCell>
        <mxCell id="f2Oplvw4wdmzlCfMh2HP-7" style="rounded=0;orthogonalLoop=1;jettySize=auto;html=1;entryX=0.5;entryY=0;entryDx=0;entryDy=0;endArrow=none;endFill=0;exitX=-0.005;exitY=1;exitDx=0;exitDy=0;exitPerimeter=0;" edge="1" parent="1" source="f2Oplvw4wdmzlCfMh2HP-1" target="-NAcJlbDHgNry9eSRGQI-17">
          <mxGeometry relative="1" as="geometry" />
        </mxCell>
        <mxCell id="f2Oplvw4wdmzlCfMh2HP-1" value="" style="triangle;whiteSpace=wrap;html=1;rotation=-90;" vertex="1" parent="1">
          <mxGeometry x="260" y="490" width="40" height="60" as="geometry" />
        </mxCell>
      </root>
    </mxGraphModel>
  </diagram>
</mxfile>
